<mxfile host="app.diagrams.net" agent="Mozilla/5.0 (Macintosh; Intel Mac OS X 10.15; rv:143.0) Gecko/20100101 Firefox/143.0" version="28.2.5">
  <diagram name="Page-1" id="NirAyLdUI5hbsPQoVOfe">
    <mxGraphModel dx="449" dy="691" grid="1" gridSize="10" guides="1" tooltips="1" connect="1" arrows="1" fold="1" page="1" pageScale="1" pageWidth="850" pageHeight="1100" math="0" shadow="0">
      <root>
        <mxCell id="0" />
        <mxCell id="1" parent="0" />
        <mxCell id="MhFvNryiQ8jj4G5M3KnE-3" value="" style="edgeStyle=orthogonalEdgeStyle;rounded=0;orthogonalLoop=1;jettySize=auto;html=1;" parent="1" source="MhFvNryiQ8jj4G5M3KnE-1" target="MhFvNryiQ8jj4G5M3KnE-2" edge="1">
          <mxGeometry relative="1" as="geometry" />
        </mxCell>
        <mxCell id="MhFvNryiQ8jj4G5M3KnE-1" value="Start" style="ellipse;whiteSpace=wrap;html=1;" parent="1" vertex="1">
          <mxGeometry x="90" y="320" width="120" height="80" as="geometry" />
        </mxCell>
        <mxCell id="MhFvNryiQ8jj4G5M3KnE-5" value="" style="edgeStyle=orthogonalEdgeStyle;rounded=0;orthogonalLoop=1;jettySize=auto;html=1;" parent="1" source="MhFvNryiQ8jj4G5M3KnE-2" target="MhFvNryiQ8jj4G5M3KnE-4" edge="1">
          <mxGeometry relative="1" as="geometry" />
        </mxCell>
        <mxCell id="MhFvNryiQ8jj4G5M3KnE-2" value="double salary, new_salary, increment" style="whiteSpace=wrap;html=1;" parent="1" vertex="1">
          <mxGeometry x="90" y="490" width="120" height="60" as="geometry" />
        </mxCell>
        <mxCell id="MhFvNryiQ8jj4G5M3KnE-7" value="" style="edgeStyle=orthogonalEdgeStyle;rounded=0;orthogonalLoop=1;jettySize=auto;html=1;" parent="1" source="MhFvNryiQ8jj4G5M3KnE-4" target="MhFvNryiQ8jj4G5M3KnE-6" edge="1">
          <mxGeometry relative="1" as="geometry" />
        </mxCell>
        <mxCell id="MhFvNryiQ8jj4G5M3KnE-4" value="INPUT salary&amp;nbsp;" style="shape=parallelogram;perimeter=parallelogramPerimeter;whiteSpace=wrap;html=1;fixedSize=1;" parent="1" vertex="1">
          <mxGeometry x="90" y="630" width="120" height="60" as="geometry" />
        </mxCell>
        <mxCell id="MhFvNryiQ8jj4G5M3KnE-9" value="" style="edgeStyle=orthogonalEdgeStyle;rounded=0;orthogonalLoop=1;jettySize=auto;html=1;" parent="1" source="MhFvNryiQ8jj4G5M3KnE-6" target="MhFvNryiQ8jj4G5M3KnE-8" edge="1">
          <mxGeometry relative="1" as="geometry" />
        </mxCell>
        <mxCell id="MhFvNryiQ8jj4G5M3KnE-11" value="" style="edgeStyle=orthogonalEdgeStyle;rounded=0;orthogonalLoop=1;jettySize=auto;html=1;" parent="1" source="MhFvNryiQ8jj4G5M3KnE-6" target="MhFvNryiQ8jj4G5M3KnE-10" edge="1">
          <mxGeometry relative="1" as="geometry" />
        </mxCell>
        <mxCell id="MhFvNryiQ8jj4G5M3KnE-6" value="if (salary &amp;lt; 1200)" style="rhombus;whiteSpace=wrap;html=1;" parent="1" vertex="1">
          <mxGeometry x="110" y="760" width="80" height="80" as="geometry" />
        </mxCell>
        <mxCell id="MhFvNryiQ8jj4G5M3KnE-13" value="" style="edgeStyle=orthogonalEdgeStyle;rounded=0;orthogonalLoop=1;jettySize=auto;html=1;" parent="1" source="MhFvNryiQ8jj4G5M3KnE-8" target="MhFvNryiQ8jj4G5M3KnE-12" edge="1">
          <mxGeometry relative="1" as="geometry" />
        </mxCell>
        <mxCell id="MhFvNryiQ8jj4G5M3KnE-8" value="increment = salary * 0.05" style="whiteSpace=wrap;html=1;" parent="1" vertex="1">
          <mxGeometry x="90" y="930" width="120" height="60" as="geometry" />
        </mxCell>
        <mxCell id="MhFvNryiQ8jj4G5M3KnE-10" value="increment = salary * 0.10" style="whiteSpace=wrap;html=1;" parent="1" vertex="1">
          <mxGeometry x="250" y="770" width="120" height="60" as="geometry" />
        </mxCell>
        <mxCell id="MhFvNryiQ8jj4G5M3KnE-15" value="" style="edgeStyle=orthogonalEdgeStyle;rounded=0;orthogonalLoop=1;jettySize=auto;html=1;" parent="1" source="MhFvNryiQ8jj4G5M3KnE-12" target="MhFvNryiQ8jj4G5M3KnE-14" edge="1">
          <mxGeometry relative="1" as="geometry" />
        </mxCell>
        <mxCell id="MhFvNryiQ8jj4G5M3KnE-12" value="new_salary = salary + increment" style="whiteSpace=wrap;html=1;" parent="1" vertex="1">
          <mxGeometry x="90" y="1070" width="120" height="60" as="geometry" />
        </mxCell>
        <mxCell id="MhFvNryiQ8jj4G5M3KnE-19" value="" style="edgeStyle=orthogonalEdgeStyle;rounded=0;orthogonalLoop=1;jettySize=auto;html=1;" parent="1" source="MhFvNryiQ8jj4G5M3KnE-14" edge="1">
          <mxGeometry relative="1" as="geometry">
            <mxPoint x="150" y="1340" as="targetPoint" />
          </mxGeometry>
        </mxCell>
        <mxCell id="MhFvNryiQ8jj4G5M3KnE-14" value="Print = salary&amp;nbsp;&amp;nbsp;" style="shape=parallelogram;perimeter=parallelogramPerimeter;whiteSpace=wrap;html=1;fixedSize=1;" parent="1" vertex="1">
          <mxGeometry x="90" y="1210" width="120" height="60" as="geometry" />
        </mxCell>
        <mxCell id="MhFvNryiQ8jj4G5M3KnE-16" value="Yes" style="text;html=1;align=center;verticalAlign=middle;whiteSpace=wrap;rounded=0;" parent="1" vertex="1">
          <mxGeometry x="180" y="760" width="60" height="30" as="geometry" />
        </mxCell>
        <mxCell id="MhFvNryiQ8jj4G5M3KnE-17" value="No" style="text;html=1;align=center;verticalAlign=middle;whiteSpace=wrap;rounded=0;" parent="1" vertex="1">
          <mxGeometry x="70" y="850" width="60" height="30" as="geometry" />
        </mxCell>
        <mxCell id="MhFvNryiQ8jj4G5M3KnE-20" value="End" style="ellipse;whiteSpace=wrap;html=1;" parent="1" vertex="1">
          <mxGeometry x="90" y="1340" width="120" height="80" as="geometry" />
        </mxCell>
        <mxCell id="MhFvNryiQ8jj4G5M3KnE-21" value="" style="endArrow=classic;html=1;rounded=0;exitX=0.592;exitY=1.05;exitDx=0;exitDy=0;exitPerimeter=0;" parent="1" source="MhFvNryiQ8jj4G5M3KnE-10" edge="1">
          <mxGeometry width="50" height="50" relative="1" as="geometry">
            <mxPoint x="320" y="980" as="sourcePoint" />
            <mxPoint x="150" y="1040" as="targetPoint" />
            <Array as="points">
              <mxPoint x="320" y="1040" />
              <mxPoint x="240" y="1040" />
            </Array>
          </mxGeometry>
        </mxCell>
        <mxCell id="MhFvNryiQ8jj4G5M3KnE-24" value="" style="edgeStyle=orthogonalEdgeStyle;rounded=0;orthogonalLoop=1;jettySize=auto;html=1;" parent="1" source="MhFvNryiQ8jj4G5M3KnE-22" target="MhFvNryiQ8jj4G5M3KnE-23" edge="1">
          <mxGeometry relative="1" as="geometry" />
        </mxCell>
        <mxCell id="MhFvNryiQ8jj4G5M3KnE-22" value="Start" style="ellipse;whiteSpace=wrap;html=1;" parent="1" vertex="1">
          <mxGeometry x="410" y="280" width="120" height="80" as="geometry" />
        </mxCell>
        <mxCell id="MhFvNryiQ8jj4G5M3KnE-26" value="" style="edgeStyle=orthogonalEdgeStyle;rounded=0;orthogonalLoop=1;jettySize=auto;html=1;" parent="1" source="MhFvNryiQ8jj4G5M3KnE-23" target="MhFvNryiQ8jj4G5M3KnE-25" edge="1">
          <mxGeometry relative="1" as="geometry" />
        </mxCell>
        <mxCell id="MhFvNryiQ8jj4G5M3KnE-23" value="double dividend_entitles" style="whiteSpace=wrap;html=1;" parent="1" vertex="1">
          <mxGeometry x="410" y="450" width="120" height="60" as="geometry" />
        </mxCell>
        <mxCell id="MhFvNryiQ8jj4G5M3KnE-28" value="" style="edgeStyle=orthogonalEdgeStyle;rounded=0;orthogonalLoop=1;jettySize=auto;html=1;" parent="1" source="MhFvNryiQ8jj4G5M3KnE-25" target="MhFvNryiQ8jj4G5M3KnE-27" edge="1">
          <mxGeometry relative="1" as="geometry" />
        </mxCell>
        <mxCell id="MhFvNryiQ8jj4G5M3KnE-25" value="INPUT share_units" style="shape=parallelogram;perimeter=parallelogramPerimeter;whiteSpace=wrap;html=1;fixedSize=1;" parent="1" vertex="1">
          <mxGeometry x="410" y="590" width="120" height="60" as="geometry" />
        </mxCell>
        <mxCell id="MhFvNryiQ8jj4G5M3KnE-30" value="" style="edgeStyle=orthogonalEdgeStyle;rounded=0;orthogonalLoop=1;jettySize=auto;html=1;" parent="1" source="MhFvNryiQ8jj4G5M3KnE-27" edge="1">
          <mxGeometry relative="1" as="geometry">
            <mxPoint x="470" y="890" as="targetPoint" />
          </mxGeometry>
        </mxCell>
        <mxCell id="MhFvNryiQ8jj4G5M3KnE-32" value="" style="edgeStyle=orthogonalEdgeStyle;rounded=0;orthogonalLoop=1;jettySize=auto;html=1;" parent="1" source="MhFvNryiQ8jj4G5M3KnE-27" target="MhFvNryiQ8jj4G5M3KnE-31" edge="1">
          <mxGeometry relative="1" as="geometry" />
        </mxCell>
        <mxCell id="MhFvNryiQ8jj4G5M3KnE-27" value="if (share_units &amp;lt;= 500)" style="rhombus;whiteSpace=wrap;html=1;" parent="1" vertex="1">
          <mxGeometry x="430" y="720" width="80" height="80" as="geometry" />
        </mxCell>
        <mxCell id="MhFvNryiQ8jj4G5M3KnE-31" value="" style="whiteSpace=wrap;html=1;" parent="1" vertex="1">
          <mxGeometry x="570" y="730" width="120" height="60" as="geometry" />
        </mxCell>
        <mxCell id="MhFvNryiQ8jj4G5M3KnE-37" value="" style="edgeStyle=orthogonalEdgeStyle;rounded=0;orthogonalLoop=1;jettySize=auto;html=1;" parent="1" source="MhFvNryiQ8jj4G5M3KnE-33" target="MhFvNryiQ8jj4G5M3KnE-36" edge="1">
          <mxGeometry relative="1" as="geometry" />
        </mxCell>
        <mxCell id="MhFvNryiQ8jj4G5M3KnE-33" value="if (share_units &amp;lt;= 1000)" style="rhombus;whiteSpace=wrap;html=1;" parent="1" vertex="1">
          <mxGeometry x="430" y="890" width="80" height="80" as="geometry" />
        </mxCell>
        <mxCell id="MhFvNryiQ8jj4G5M3KnE-34" value="Yes" style="text;html=1;align=center;verticalAlign=middle;whiteSpace=wrap;rounded=0;" parent="1" vertex="1">
          <mxGeometry x="500" y="710" width="60" height="30" as="geometry" />
        </mxCell>
        <mxCell id="MhFvNryiQ8jj4G5M3KnE-35" value="No" style="text;html=1;align=center;verticalAlign=middle;whiteSpace=wrap;rounded=0;" parent="1" vertex="1">
          <mxGeometry x="395" y="820" width="60" height="30" as="geometry" />
        </mxCell>
        <mxCell id="MhFvNryiQ8jj4G5M3KnE-36" value="" style="whiteSpace=wrap;html=1;" parent="1" vertex="1">
          <mxGeometry x="410" y="1060" width="120" height="60" as="geometry" />
        </mxCell>
        <mxCell id="lYUy84uZTdHTBKya9MUI-3" value="" style="edgeStyle=orthogonalEdgeStyle;rounded=0;orthogonalLoop=1;jettySize=auto;html=1;" parent="1" source="lYUy84uZTdHTBKya9MUI-1" target="lYUy84uZTdHTBKya9MUI-2" edge="1">
          <mxGeometry relative="1" as="geometry" />
        </mxCell>
        <mxCell id="lYUy84uZTdHTBKya9MUI-1" value="Start" style="ellipse;whiteSpace=wrap;html=1;" parent="1" vertex="1">
          <mxGeometry x="270" y="1890" width="120" height="80" as="geometry" />
        </mxCell>
        <mxCell id="lYUy84uZTdHTBKya9MUI-5" value="" style="edgeStyle=orthogonalEdgeStyle;rounded=0;orthogonalLoop=1;jettySize=auto;html=1;" parent="1" source="lYUy84uZTdHTBKya9MUI-2" target="lYUy84uZTdHTBKya9MUI-4" edge="1">
          <mxGeometry relative="1" as="geometry" />
        </mxCell>
        <mxCell id="lYUy84uZTdHTBKya9MUI-2" value="double ..." style="whiteSpace=wrap;html=1;" parent="1" vertex="1">
          <mxGeometry x="270" y="2060" width="120" height="60" as="geometry" />
        </mxCell>
        <mxCell id="lYUy84uZTdHTBKya9MUI-7" value="" style="edgeStyle=orthogonalEdgeStyle;rounded=0;orthogonalLoop=1;jettySize=auto;html=1;" parent="1" source="lYUy84uZTdHTBKya9MUI-4" target="lYUy84uZTdHTBKya9MUI-6" edge="1">
          <mxGeometry relative="1" as="geometry" />
        </mxCell>
        <mxCell id="lYUy84uZTdHTBKya9MUI-4" value="" style="whiteSpace=wrap;html=1;" parent="1" vertex="1">
          <mxGeometry x="270" y="2200" width="120" height="60" as="geometry" />
        </mxCell>
        <mxCell id="lYUy84uZTdHTBKya9MUI-6" value="" style="shape=parallelogram;perimeter=parallelogramPerimeter;whiteSpace=wrap;html=1;fixedSize=1;" parent="1" vertex="1">
          <mxGeometry x="270" y="2340" width="120" height="60" as="geometry" />
        </mxCell>
      </root>
    </mxGraphModel>
  </diagram>
</mxfile>
